<svg width="36" height="60" viewBox="0 0 36 60" fill="none" xmlns="http://www.w3.org/2000/svg">
<path d="M27.5083 38.314H8.49905L10.8827 7.43909H25.1247L27.5083 38.314Z" fill="#ADD8E6"/>
<path d="M17.5567 59.559C18.8975 59.559 21.9664 39.677 21.9664 28.9211C21.9664 26.847 14.0409 27.0248 14.0409 28.9211C14.0409 39.7066 16.1861 59.559 17.5567 59.559Z" fill="#CDCDCD"/>
<path d="M34.0336 40.9215H1.94429C1.65107 40.9057 1.36465 40.8275 1.10435 40.6924C0.844036 40.5572 0.615865 40.3682 0.435188 40.1379C0.254512 39.9077 0.125525 39.6417 0.0569081 39.3577C-0.0117084 39.0738 -0.0183547 38.7785 0.0374042 38.4918C1.10868 34.5933 3.43881 31.1531 6.66905 28.7007C9.89929 26.2484 13.8505 24.92 17.9144 24.92C21.9783 24.92 25.9296 26.2484 29.1598 28.7007C32.3901 31.1531 34.7202 34.5933 35.7915 38.4918C35.8516 38.7676 35.8528 39.0528 35.795 39.3291C35.7372 39.6054 35.6217 39.8665 35.456 40.0956C35.2903 40.3246 35.0781 40.5165 34.833 40.6588C34.588 40.8011 34.3156 40.8906 34.0336 40.9215Z" fill="#ADD8E6"/>
<path d="M18.0038 44.1215C27.9428 44.1215 36 41.9061 36 39.1732C36 36.4403 27.9428 34.2249 18.0038 34.2249C8.06474 34.2249 0.0075531 36.4403 0.0075531 39.1732C0.0075531 41.9061 8.06474 44.1215 18.0038 44.1215Z" fill="#ADD8E6"/>
<path d="M26.4656 13.1578C30.2503 13.1578 33.3184 10.5974 33.3184 7.43911C33.3184 4.28077 30.2503 1.72043 26.4656 1.72043C22.6808 1.72043 19.6127 4.28077 19.6127 7.43911C19.6127 10.5974 22.6808 13.1578 26.4656 13.1578Z" fill="#ADD8E6"/>
<path d="M9.54176 13.1578C13.3265 13.1578 16.3946 10.5974 16.3946 7.43911C16.3946 4.28077 13.3265 1.72043 9.54176 1.72043C5.75703 1.72043 2.68889 4.28077 2.68889 7.43911C2.68889 10.5974 5.75703 13.1578 9.54176 13.1578Z" fill="#ADD8E6"/>
<path d="M18.0036 14.6986C25.4579 14.6986 31.5007 12.8015 31.5007 10.4614C31.5007 8.12128 25.4579 6.22424 18.0036 6.22424C10.5493 6.22424 4.50642 8.12128 4.50642 10.4614C4.50642 12.8015 10.5493 14.6986 18.0036 14.6986Z" fill="#ADD8E6"/>
<path d="M18.0036 8.7132C25.4579 8.7132 31.5007 6.81616 31.5007 4.47605C31.5007 2.13593 25.4579 0.238892 18.0036 0.238892C10.5493 0.238892 4.50642 2.13593 4.50642 4.47605C4.50642 6.81616 10.5493 8.7132 18.0036 8.7132Z" fill="#ADD8E6"/>
</svg>
