<svg width="334" height="96" viewBox="0 0 334 96" fill="none" xmlns="http://www.w3.org/2000/svg">
<path d="M27.28 73.8C24.5067 73.8 22 73.2667 19.76 72.2C17.52 71.1333 15.4667 69.64 13.6 67.72V69.8C13.6 70.8133 13.2533 71.6667 12.56 72.36C11.8667 73.0533 10.9867 73.4 9.92 73.4C8.90667 73.4 8.05333 73.0533 7.36 72.36C6.66667 71.6667 6.32 70.8133 6.32 69.8V17.88C6.32 16.8133 6.66667 15.9333 7.36 15.24C8.05333 14.5467 8.90667 14.2 9.92 14.2C10.9867 14.2 11.8667 14.5467 12.56 15.24C13.2533 15.9333 13.6 16.8133 13.6 17.88V37.48C15.4667 35.56 17.52 34.0667 19.76 33C22 31.9333 24.5067 31.4 27.28 31.4C30.5333 31.4 33.6267 32.2267 36.56 33.88C39.4933 35.5333 41.8933 37.9333 43.76 41.08C45.68 44.2267 46.64 48.0667 46.64 52.6C46.64 57.1333 45.68 60.9733 43.76 64.12C41.8933 67.2667 39.4933 69.6667 36.56 71.32C33.6267 72.9733 30.5333 73.8 27.28 73.8ZM26.24 67C30.0267 67 33.1467 65.7733 35.6 63.32C38.1067 60.8667 39.36 57.2933 39.36 52.6C39.36 47.8533 38.1067 44.28 35.6 41.88C33.1467 39.4267 30.0267 38.2 26.24 38.2C23.6267 38.2 21.2533 38.7867 19.12 39.96C16.9867 41.08 15.1467 42.4933 13.6 44.2V61C15.1467 62.7067 16.9867 64.1467 19.12 65.32C21.2533 66.44 23.6267 67 26.24 67ZM70.7088 73.8C67.6688 73.8 65.0821 73.1067 62.9488 71.72C60.8154 70.28 59.1888 68.36 58.0688 65.96C56.9488 63.56 56.3888 60.9467 56.3888 58.12V35.4C56.3888 34.3867 56.7354 33.5333 57.4288 32.84C58.1754 32.1467 59.0554 31.8 60.0688 31.8C61.0821 31.8 61.9354 32.1467 62.6288 32.84C63.3221 33.5333 63.6688 34.3867 63.6688 35.4V57.32C63.6688 60.36 64.3621 62.76 65.7488 64.52C67.1354 66.2267 69.3754 67.08 72.4688 67.08C75.3488 67.08 77.8554 66.3067 79.9888 64.76C82.1221 63.16 83.9888 61.3733 85.5888 59.4V35.4C85.5888 34.3867 85.9354 33.5333 86.6288 32.84C87.3754 32.1467 88.2554 31.8 89.2688 31.8C90.2821 31.8 91.1354 32.1467 91.8288 32.84C92.5221 33.5333 92.8688 34.3867 92.8688 35.4V69.72C92.8688 70.7333 92.5221 71.6133 91.8288 72.36C91.1354 73.0533 90.2821 73.4 89.2688 73.4C88.2554 73.4 87.3754 73.0533 86.6288 72.36C85.9354 71.6133 85.5888 70.7333 85.5888 69.72V66.44C83.9354 68.2533 81.9354 69.9333 79.5888 71.48C77.2421 73.0267 74.2821 73.8 70.7088 73.8ZM109.139 73.4C108.125 73.4 107.272 73.0533 106.579 72.36C105.885 71.6667 105.539 70.8133 105.539 69.8V17.88C105.539 16.8133 105.885 15.9333 106.579 15.24C107.272 14.5467 108.125 14.2 109.139 14.2C110.205 14.2 111.085 14.5467 111.779 15.24C112.472 15.9333 112.819 16.8133 112.819 17.88V69.8C112.819 70.8133 112.472 71.6667 111.779 72.36C111.085 73.0533 110.205 73.4 109.139 73.4ZM129.061 73.4C128.047 73.4 127.194 73.0533 126.501 72.36C125.807 71.6667 125.461 70.8133 125.461 69.8V17.88C125.461 16.8133 125.807 15.9333 126.501 15.24C127.194 14.5467 128.047 14.2 129.061 14.2C130.127 14.2 131.007 14.5467 131.701 15.24C132.394 15.9333 132.741 16.8133 132.741 17.88V69.8C132.741 70.8133 132.394 71.6667 131.701 72.36C131.007 73.0533 130.127 73.4 129.061 73.4ZM163.623 73.8C157.116 73.8 152.023 71.96 148.343 68.28C144.716 64.5467 142.903 59.32 142.903 52.6C142.903 48.9733 143.569 45.56 144.903 42.36C146.236 39.1067 148.316 36.4667 151.143 34.44C153.969 32.4133 157.596 31.4 162.023 31.4C166.129 31.4 169.596 32.36 172.423 34.28C175.249 36.1467 177.383 38.6 178.823 41.64C180.316 44.68 181.063 47.9867 181.063 51.56C181.063 52.5733 180.716 53.4267 180.023 54.12C179.383 54.8133 178.503 55.16 177.383 55.16H150.263C150.689 58.7333 152.049 61.6133 154.343 63.8C156.636 65.9333 159.943 67 164.263 67C166.663 67 168.689 66.7867 170.343 66.36C171.996 65.88 173.569 65.2667 175.063 64.52C175.489 64.3067 175.969 64.2 176.503 64.2C177.356 64.2 178.103 64.4933 178.743 65.08C179.383 65.6667 179.703 66.4133 179.703 67.32C179.703 67.96 179.489 68.5467 179.062 69.08C178.689 69.56 178.209 69.96 177.623 70.28C175.863 71.2933 173.943 72.1467 171.863 72.84C169.836 73.48 167.089 73.8 163.623 73.8ZM150.263 49.24H173.863C173.703 46.4667 172.983 44.2267 171.703 42.52C170.476 40.8133 168.983 39.56 167.223 38.76C165.463 37.96 163.729 37.56 162.023 37.56C160.316 37.56 158.583 37.96 156.823 38.76C155.063 39.56 153.569 40.8133 152.343 42.52C151.116 44.2267 150.423 46.4667 150.263 49.24ZM204.775 73.8C203.815 73.8 202.668 73.6933 201.335 73.48C200.055 73.32 198.775 72.92 197.495 72.28C196.268 71.5867 195.228 70.52 194.375 69.08C193.522 67.64 193.095 65.6933 193.095 63.24V38.44H187.415C186.402 38.44 185.895 37.9333 185.895 36.92C185.895 36.3867 186.135 35.9333 186.615 35.56L197.495 24.92C197.602 24.8133 197.762 24.68 197.975 24.52C198.242 24.3067 198.535 24.2 198.855 24.2C199.282 24.2 199.628 24.36 199.895 24.68C200.215 25 200.375 25.3733 200.375 25.8V32.2H209.415C210.322 32.2 211.068 32.4933 211.655 33.08C212.242 33.6667 212.535 34.4133 212.535 35.32C212.535 36.1733 212.242 36.92 211.655 37.56C211.068 38.1467 210.322 38.44 209.415 38.44H200.375V62.6C200.375 64.1467 200.668 65.2667 201.255 65.96C201.842 66.6533 202.535 67.08 203.335 67.24C204.188 67.3467 204.935 67.4 205.575 67.4C206.855 67.4 207.788 67.2933 208.375 67.08C209.015 66.8133 209.682 66.68 210.375 66.68C211.122 66.68 211.788 66.9467 212.375 67.48C212.962 68.0133 213.255 68.7067 213.255 69.56C213.255 70.7867 212.642 71.72 211.415 72.36C210.455 72.7867 209.415 73.1333 208.295 73.4C207.228 73.6667 206.055 73.8 204.775 73.8Z" fill="#333333"/>
<path d="M272.92 73.4C271.907 73.4 271.053 73.0533 270.36 72.36C269.667 71.6667 269.32 70.8133 269.32 69.8V35.48C269.32 34.4133 269.667 33.5333 270.36 32.84C271.053 32.1467 271.907 31.8 272.92 31.8C273.933 31.8 274.787 32.1467 275.48 32.84C276.227 33.5333 276.6 34.4133 276.6 35.48V38.76C278.307 36.8933 280.307 35.2133 282.6 33.72C284.947 32.1733 287.907 31.4 291.48 31.4C294.52 31.4 297.107 32.12 299.24 33.56C301.373 34.9467 303 36.84 304.12 39.24C305.24 41.5867 305.8 44.2 305.8 47.08V69.8C305.8 70.8133 305.427 71.6667 304.68 72.36C303.987 73.0533 303.133 73.4 302.12 73.4C301.107 73.4 300.253 73.0533 299.56 72.36C298.867 71.6667 298.52 70.8133 298.52 69.8V47.88C298.52 44.84 297.827 42.4667 296.44 40.76C295.107 39 292.867 38.12 289.72 38.12C286.84 38.12 284.333 38.8933 282.2 40.44C280.067 41.9867 278.2 43.7733 276.6 45.8V69.8C276.6 70.8133 276.227 71.6667 275.48 72.36C274.787 73.0533 273.933 73.4 272.92 73.4Z" fill="#333333"/>
<path d="M249.508 52.314H230.499L232.883 21.4391H247.125L249.508 52.314Z" fill="#FF5C5C"/>
<path d="M239.557 73.559C240.897 73.559 243.966 53.677 243.966 42.9212C243.966 40.847 236.041 41.0248 236.041 42.9212C236.041 53.7066 238.186 73.559 239.557 73.559Z" fill="#CDCDCD"/>
<path d="M256.034 54.9215H223.944C223.651 54.9057 223.365 54.8276 223.104 54.6924C222.844 54.5572 222.616 54.3682 222.435 54.138C222.255 53.9078 222.126 53.6417 222.057 53.3578C221.988 53.0738 221.982 52.7786 222.037 52.4918C223.109 48.5933 225.439 45.1531 228.669 42.7008C231.899 40.2484 235.851 38.92 239.914 38.92C243.978 38.92 247.93 40.2484 251.16 42.7008C254.39 45.1531 256.72 48.5933 257.791 52.4918C257.852 52.7676 257.853 53.0529 257.795 53.3291C257.737 53.6054 257.622 53.8665 257.456 54.0956C257.29 54.3246 257.078 54.5165 256.833 54.6588C256.588 54.8011 256.316 54.8906 256.034 54.9215Z" fill="#FF5C5C"/>
<path d="M240.004 58.1215C249.943 58.1215 258 55.9061 258 53.1732C258 50.4404 249.943 48.2249 240.004 48.2249C230.065 48.2249 222.008 50.4404 222.008 53.1732C222.008 55.9061 230.065 58.1215 240.004 58.1215Z" fill="#FF5C5C"/>
<path d="M248.466 27.1578C252.25 27.1578 255.318 24.5975 255.318 21.4391C255.318 18.2808 252.25 15.7205 248.466 15.7205C244.681 15.7205 241.613 18.2808 241.613 21.4391C241.613 24.5975 244.681 27.1578 248.466 27.1578Z" fill="#FF5C5C"/>
<path d="M231.542 27.1578C235.326 27.1578 238.395 24.5975 238.395 21.4391C238.395 18.2808 235.326 15.7205 231.542 15.7205C227.757 15.7205 224.689 18.2808 224.689 21.4391C224.689 24.5975 227.757 27.1578 231.542 27.1578Z" fill="#FF5C5C"/>
<path d="M240.004 28.6986C247.458 28.6986 253.501 26.8015 253.501 24.4614C253.501 22.1213 247.458 20.2243 240.004 20.2243C232.549 20.2243 226.506 22.1213 226.506 24.4614C226.506 26.8015 232.549 28.6986 240.004 28.6986Z" fill="#FF5C5C"/>
<path d="M240.004 22.7132C247.458 22.7132 253.501 20.8162 253.501 18.4761C253.501 16.136 247.458 14.2389 240.004 14.2389C232.549 14.2389 226.506 16.136 226.506 18.4761C226.506 20.8162 232.549 22.7132 240.004 22.7132Z" fill="#FF5C5C"/>
</svg>